<svg xmlns="http://www.w3.org/2000/svg" xml:space="preserve" viewBox="0 0 512 178">
  <path fill="#257c09" d="M114.1 71.9c0-12.8-8.6-23.5-27.1-24.6-34.3-1.7-79.3 21.8-83.3 69.5A98.4 98.4 0 0 1 22 27.1C35.2 11.4 57.4.4 87 .4c47.1 0 81.4 31 81.4 75.5 0 24-9.9 36.1-29.9 36.6-27.3.7-24.4-40.6-24.4-40.6zm249.6-54.4C374.4 5 413.4 0 429.8 0c55 0 83.9 16 82.1 94.3-12.1-43.1-70.7-46.3-97.1-43.4-9.6 1.1-18.2 2.1-26.4 2.1-13.9 0-24.3-3.2-27.5-15-1.8-8.1-2.5-13.4 2.8-20.5zM208.4 4.6c6.8 0 12.1 2.5 16.8 7.5a57.5 57.5 0 0 1 12.5 21.7c3.2 8.9 6.1 17.1 8.6 24.9l11.4 32.8a43.7 43.7 0 0 1-15.7 22.8 25 25 0 0 1-13.9 4.3 26 26 0 0 1-23.9-16.4c-3.9-8.9-7.5-19.9-11.4-28.5L186.2 58c-3.2-8.2-5-13.9-5-17.5-.4-3.9-.4-6-.4-7.1.1-16.7 10.8-28.8 27.6-28.8z"/>
  <path fill="#2a2a9b" d="M103.2 112.5c-16.9 13-43.8 0-43.8 0 0 14.2 23.2 18.1 33.6 18.1 11.1 0 22.5-2.1 31.4-3.9a63 63 0 0 1 13.9-1.8c13.2 0 19.6 8.9 19.6 21.4 0 26.3-49.3 31.7-68.2 31.7-26.8 0-53.6-8.2-69.3-27.8a46 46 0 0 1-2.7-54.1 55.7 55.7 0 0 1 48.2-24.2h11.5c31.4 0 38.2 31.1 25.8 40.6zm128 13.9c13.9 0 26.4-8.6 31.1-24.2 1.8-4.6 7.5-22.4 13.2-37.7l10.7-30.6c6.8-19.6 16.4-29.2 29.3-29.2 8.9 0 18.9 4.6 23.6 12.8a37.6 37.6 0 0 1 3.9 16 52 52 0 0 1-5.4 24.6l-6 14.9c-3.9 8.9-8.2 20.3-12.5 31.3-3.9 8.5-6.8 17.1-9.3 23.1a110 110 0 0 0-4.3 10.3c-8.2 19.9-20.7 35.2-43.6 35.2-10 0-18.6-2.9-25.4-8.6a60.5 60.5 0 0 1-18.2-26.7l-7.5-18.2a32 32 0 0 0 20.4 7zm201.4-63c9.6 0 20 .7 31.8 2.1a53.4 53.4 0 0 1 46.4 52.7v19.6c0 27.4-16.1 35.2-30.4 35.2-13.9 0-25-5-28.9-18.9v-.7c-8.2 15.7-23.9 23.5-47.1 23.5a62.3 62.3 0 0 1-36.1-10.3L363 162c-25.7-25.6-30.4-98.6 69.6-98.6zm-8.5 68c9.3 0 16.1-2.5 20.4-7.5 9.3-10.3 6.1-17.5 7.1-23.8-18.2-1.8-44.6-.3-44.6 17.8-.1 8.8 5.6 13.5 17.1 13.5z"/>
</svg>